<svg xmlns="http://www.w3.org/2000/svg" xmlns:xlink="http://www.w3.org/1999/xlink" width="2000" zoomAndPan="magnify" viewBox="0 0 1500 1499.999933" height="2000" preserveAspectRatio="xMidYMid meet" version="1.0"><defs><clipPath id="154247283e"><path d="M 252.136719 278.273438 L 1248 278.273438 L 1248 1221.773438 L 252.136719 1221.773438 Z M 252.136719 278.273438 " clip-rule="nonzero"/></clipPath></defs><rect x="-150" width="1800" fill="#ffffff" y="-149.999993" height="1799.99992" fill-opacity="1"/><rect x="-150" width="1800" fill="#0b0b0b" y="-149.999993" height="1799.99992" fill-opacity="1"/><g clip-path="url(#154247283e)"><path fill="#d29803" d="M 921.425781 1221.238281 L 809.324219 1028.703125 L 633.027344 1220.050781 L 252.605469 1219.960938 L 1031.890625 374.003906 L 908.269531 374.003906 L 676.699219 625.363281 L 529.476562 372.761719 L 424.316406 372.761719 L 612.75 696.328125 L 545.734375 769.089844 L 259.953125 278.292969 L 583.824219 278.292969 L 693.914062 467.195312 L 866.789062 279.550781 L 1247.382812 279.550781 L 468.0625 1125.566406 L 591.558594 1125.582031 L 826.585938 870.5 L 975.863281 1126.878906 L 1081.15625 1127.023438 L 890.527344 799.625 L 957.546875 726.863281 L 1245.648438 1221.707031 Z M 921.425781 1221.238281 " fill-opacity="1" fill-rule="nonzero"/><path fill="#d29803" d="M 921.425781 1221.238281 L 809.324219 1028.703125 L 633.027344 1220.050781 L 252.605469 1219.960938 L 1031.890625 374.003906 L 908.269531 374.003906 L 676.699219 625.363281 L 529.476562 372.761719 L 424.316406 372.761719 L 612.75 696.328125 L 545.734375 769.089844 L 259.953125 278.292969 L 583.824219 278.292969 L 693.914062 467.195312 L 866.789062 279.550781 L 1247.382812 279.550781 L 468.0625 1125.566406 L 591.558594 1125.582031 L 826.585938 870.5 L 975.863281 1126.878906 L 1081.15625 1127.023438 L 890.527344 799.625 L 957.546875 726.863281 L 1245.648438 1221.707031 Z M 921.425781 1221.238281 " fill-opacity="1" fill-rule="nonzero"/></g></svg>