<svg xmlns="http://www.w3.org/2000/svg" xmlns:xlink="http://www.w3.org/1999/xlink" width="2000" zoomAndPan="magnify" viewBox="0 0 1500 1499.999933" height="2000" preserveAspectRatio="xMidYMid meet" version="1.0"><defs><clipPath id="f625ee1742"><path d="M 343.109375 364.46875 L 1156.859375 364.46875 L 1156.859375 1135.46875 L 343.109375 1135.46875 Z M 343.109375 364.46875 " clip-rule="nonzero"/></clipPath></defs><rect x="-150" width="1800" fill="#ffffff" y="-149.999993" height="1799.99992" fill-opacity="1"/><rect x="-150" width="1800" fill="#0b0b0b" y="-149.999993" height="1799.99992" fill-opacity="1"/><g clip-path="url(#f625ee1742)"><path fill="#d6ad43" d="M 890.101562 1135.128906 L 798.484375 977.777344 L 654.402344 1134.160156 L 343.492188 1134.085938 L 980.378906 442.707031 L 879.347656 442.707031 L 690.09375 648.136719 L 569.773438 441.691406 L 483.828125 441.691406 L 637.828125 706.132812 L 583.058594 765.601562 L 349.496094 364.488281 L 614.1875 364.488281 L 704.160156 518.871094 L 845.449219 365.515625 L 1156.496094 365.515625 L 519.578125 1056.9375 L 620.507812 1056.953125 L 812.59375 848.480469 L 934.589844 1058.011719 L 1020.644531 1058.128906 L 864.847656 790.558594 L 919.621094 731.089844 L 1155.078125 1135.511719 Z M 890.101562 1135.128906 " fill-opacity="1" fill-rule="nonzero"/></g><path fill="#d6ad43" d="M 177.273438 150 C 176.378906 150 175.488281 150.042969 174.601562 150.132812 C 173.710938 150.21875 172.828125 150.351562 171.953125 150.523438 C 171.078125 150.699219 170.210938 150.914062 169.355469 151.175781 C 168.5 151.433594 167.660156 151.734375 166.835938 152.078125 C 166.011719 152.417969 165.203125 152.800781 164.417969 153.222656 C 163.628906 153.640625 162.863281 154.101562 162.121094 154.597656 C 161.378906 155.09375 160.664062 155.625 159.972656 156.191406 C 159.28125 156.757812 158.621094 157.355469 157.988281 157.988281 C 157.355469 158.621094 156.757812 159.28125 156.191406 159.972656 C 155.625 160.664062 155.09375 161.378906 154.597656 162.121094 C 154.101562 162.863281 153.640625 163.628906 153.222656 164.417969 C 152.800781 165.203125 152.417969 166.011719 152.078125 166.835938 C 151.734375 167.660156 151.433594 168.5 151.175781 169.355469 C 150.914062 170.210938 150.699219 171.078125 150.523438 171.953125 C 150.351562 172.828125 150.21875 173.710938 150.132812 174.597656 C 150.042969 175.488281 150 176.378906 150 177.273438 L 150 1322.726562 C 150 1323.621094 150.042969 1324.511719 150.132812 1325.398438 C 150.21875 1326.289062 150.351562 1327.171875 150.523438 1328.046875 C 150.699219 1328.921875 150.914062 1329.789062 151.175781 1330.644531 C 151.433594 1331.5 151.734375 1332.339844 152.078125 1333.164062 C 152.417969 1333.988281 152.800781 1334.796875 153.222656 1335.582031 C 153.640625 1336.371094 154.101562 1337.136719 154.597656 1337.878906 C 155.09375 1338.621094 155.625 1339.335938 156.191406 1340.027344 C 156.757812 1340.71875 157.355469 1341.378906 157.988281 1342.011719 C 158.621094 1342.640625 159.28125 1343.242188 159.972656 1343.808594 C 160.664062 1344.375 161.378906 1344.90625 162.121094 1345.402344 C 162.863281 1345.898438 163.628906 1346.359375 164.417969 1346.777344 C 165.203125 1347.199219 166.011719 1347.582031 166.835938 1347.921875 C 167.660156 1348.265625 168.5 1348.566406 169.355469 1348.824219 C 170.210938 1349.085938 171.078125 1349.300781 171.953125 1349.476562 C 172.828125 1349.648438 173.710938 1349.78125 174.601562 1349.867188 C 175.488281 1349.957031 176.378906 1350 177.273438 1350 L 1322.726562 1350 C 1323.621094 1350 1324.511719 1349.957031 1325.398438 1349.867188 C 1326.289062 1349.78125 1327.171875 1349.648438 1328.046875 1349.476562 C 1328.921875 1349.300781 1329.789062 1349.085938 1330.644531 1348.824219 C 1331.5 1348.566406 1332.339844 1348.265625 1333.164062 1347.921875 C 1333.988281 1347.582031 1334.796875 1347.199219 1335.582031 1346.777344 C 1336.371094 1346.359375 1337.136719 1345.898438 1337.878906 1345.402344 C 1338.621094 1344.90625 1339.335938 1344.375 1340.027344 1343.808594 C 1340.71875 1343.242188 1341.378906 1342.640625 1342.011719 1342.011719 C 1342.640625 1341.378906 1343.242188 1340.71875 1343.808594 1340.027344 C 1344.375 1339.335938 1344.90625 1338.621094 1345.402344 1337.878906 C 1345.898438 1337.136719 1346.359375 1336.371094 1346.777344 1335.582031 C 1347.199219 1334.796875 1347.582031 1333.988281 1347.921875 1333.164062 C 1348.265625 1332.339844 1348.566406 1331.5 1348.824219 1330.644531 C 1349.085938 1329.789062 1349.300781 1328.921875 1349.476562 1328.046875 C 1349.648438 1327.171875 1349.78125 1326.289062 1349.867188 1325.398438 C 1349.957031 1324.511719 1350 1323.621094 1350 1322.726562 L 1350 177.273438 C 1350 176.378906 1349.957031 175.488281 1349.867188 174.597656 C 1349.78125 173.710938 1349.648438 172.828125 1349.476562 171.953125 C 1349.300781 171.078125 1349.085938 170.210938 1348.824219 169.355469 C 1348.566406 168.5 1348.265625 167.660156 1347.921875 166.835938 C 1347.582031 166.011719 1347.199219 165.203125 1346.777344 164.417969 C 1346.359375 163.628906 1345.898438 162.863281 1345.402344 162.121094 C 1344.90625 161.378906 1344.375 160.664062 1343.808594 159.972656 C 1343.242188 159.28125 1342.640625 158.621094 1342.011719 157.988281 C 1341.378906 157.355469 1340.71875 156.757812 1340.027344 156.191406 C 1339.335938 155.625 1338.621094 155.09375 1337.878906 154.597656 C 1337.136719 154.101562 1336.371094 153.640625 1335.582031 153.222656 C 1334.796875 152.800781 1333.988281 152.417969 1333.164062 152.078125 C 1332.339844 151.734375 1331.5 151.433594 1330.644531 151.175781 C 1329.789062 150.914062 1328.921875 150.699219 1328.046875 150.523438 C 1327.171875 150.351562 1326.289062 150.21875 1325.398438 150.132812 C 1324.511719 150.042969 1323.621094 150 1322.726562 150 Z M 204.546875 204.546875 L 1295.453125 204.546875 L 1295.453125 1295.453125 L 204.546875 1295.453125 Z M 204.546875 204.546875 " fill-opacity="1" fill-rule="nonzero"/></svg>