<svg xmlns="http://www.w3.org/2000/svg" xmlns:xlink="http://www.w3.org/1999/xlink" width="1659" zoomAndPan="magnify" viewBox="0 0 1244.25 302.250004" height="403" preserveAspectRatio="xMidYMid meet" version="1.0"><defs><g/><clipPath id="63fcd8fd2d"><rect x="0" width="810" y="0" height="161"/></clipPath><clipPath id="80115471a3"><rect x="0" width="836" y="0" height="37"/></clipPath><clipPath id="b842ef0d04"><path d="M 49.34375 55.503906 L 252.09375 55.503906 L 252.09375 247.777344 L 49.34375 247.777344 Z M 49.34375 55.503906 " clip-rule="nonzero"/></clipPath><clipPath id="8078e24549"><path d="M 1.164062 1.996094 L 300.421875 1.996094 L 300.421875 301.253906 L 1.164062 301.253906 Z M 1.164062 1.996094 " clip-rule="nonzero"/></clipPath></defs><g transform="matrix(1, 0, 0, 1, 387, 42)"><g clip-path="url(#63fcd8fd2d)"><g fill="#ffffff" fill-opacity="1"><g transform="translate(0.607018, 128.541114)"><g><path d="M 2.90625 0 L 41.875 -55.546875 L 41.875 -42.578125 L 5.609375 -96.140625 L 25.484375 -96.140625 L 37.171875 -78.515625 C 39.054688 -75.722656 40.644531 -73.1875 41.9375 -70.90625 C 43.226562 -68.625 44.429688 -66.40625 45.546875 -64.25 C 46.671875 -62.101562 47.898438 -59.828125 49.234375 -57.421875 L 45.03125 -57.421875 C 46.40625 -59.828125 47.648438 -62.09375 48.765625 -64.21875 C 49.890625 -66.351562 51.117188 -68.570312 52.453125 -70.875 C 53.785156 -73.175781 55.378906 -75.722656 57.234375 -78.515625 L 69.171875 -96.140625 L 88.53125 -96.140625 L 52.78125 -43.484375 L 52.78125 -55.875 L 91.046875 0 L 70.90625 0 L 56.328125 -21.609375 C 54.648438 -24.109375 53.226562 -26.300781 52.0625 -28.1875 C 50.90625 -30.082031 49.832031 -31.921875 48.84375 -33.703125 C 47.851562 -35.492188 46.734375 -37.488281 45.484375 -39.6875 L 48.453125 -39.6875 C 47.253906 -37.53125 46.144531 -35.554688 45.125 -33.765625 C 44.113281 -31.984375 43.015625 -30.144531 41.828125 -28.25 C 40.648438 -26.363281 39.203125 -24.148438 37.484375 -21.609375 L 22.640625 0 Z M 2.90625 0 "/></g></g></g><g fill="#ffffff" fill-opacity="1"><g transform="translate(84.007944, 128.541114)"><g><path d="M 50.453125 1.359375 C 41.984375 1.359375 34.398438 -0.617188 27.703125 -4.578125 C 21.015625 -8.535156 15.753906 -14.203125 11.921875 -21.578125 C 8.097656 -28.953125 6.1875 -37.757812 6.1875 -48 C 6.1875 -58.320312 8.113281 -67.171875 11.96875 -74.546875 C 15.820312 -81.929688 21.09375 -87.601562 27.78125 -91.5625 C 34.46875 -95.519531 42.023438 -97.5 50.453125 -97.5 C 55.785156 -97.5 60.753906 -96.734375 65.359375 -95.203125 C 69.960938 -93.671875 74.0625 -91.460938 77.65625 -88.578125 C 81.25 -85.703125 84.207031 -82.1875 86.53125 -78.03125 C 88.851562 -73.882812 90.398438 -69.1875 91.171875 -63.9375 L 73.8125 -63.9375 C 73.25 -66.820312 72.289062 -69.378906 70.9375 -71.609375 C 69.582031 -73.847656 67.882812 -75.753906 65.84375 -77.328125 C 63.800781 -78.898438 61.5 -80.082031 58.9375 -80.875 C 56.382812 -81.675781 53.644531 -82.078125 50.71875 -82.078125 C 45.34375 -82.078125 40.597656 -80.726562 36.484375 -78.03125 C 32.378906 -75.34375 29.1875 -71.460938 26.90625 -66.390625 C 24.625 -61.316406 23.484375 -55.1875 23.484375 -48 C 23.484375 -40.78125 24.632812 -34.628906 26.9375 -29.546875 C 29.238281 -24.472656 32.429688 -20.625 36.515625 -18 C 40.609375 -15.375 45.34375 -14.0625 50.71875 -14.0625 C 53.644531 -14.0625 56.375 -14.457031 58.90625 -15.25 C 61.445312 -16.050781 63.738281 -17.222656 65.78125 -18.765625 C 67.820312 -20.316406 69.539062 -22.222656 70.9375 -24.484375 C 72.332031 -26.742188 73.3125 -29.316406 73.875 -32.203125 L 91.234375 -32.203125 C 90.546875 -27.421875 89.09375 -23.007812 86.875 -18.96875 C 84.664062 -14.925781 81.796875 -11.378906 78.265625 -8.328125 C 74.734375 -5.273438 70.625 -2.894531 65.9375 -1.1875 C 61.25 0.507812 56.085938 1.359375 50.453125 1.359375 Z M 50.453125 1.359375 "/></g></g></g><g fill="#ffffff" fill-opacity="1"><g transform="translate(177.023097, 128.541114)"><g><path d="M 9.296875 0 L 9.296875 -96.140625 L 72.71875 -96.140625 L 72.71875 -81.5625 L 26.515625 -81.5625 L 26.515625 -55.8125 L 69.296875 -55.8125 L 69.296875 -41.421875 L 26.515625 -41.421875 L 26.515625 -14.578125 L 72.90625 -14.578125 L 72.90625 0 Z M 9.296875 0 "/></g></g></g><g fill="#ffffff" fill-opacity="1"><g transform="translate(252.874863, 128.541114)"><g><path d="M 9.296875 0 L 9.296875 -96.140625 L 26.515625 -96.140625 L 26.515625 -14.578125 L 69.421875 -14.578125 L 69.421875 0 Z M 9.296875 0 "/></g></g></g><g fill="#ffffff" fill-opacity="1"><g transform="translate(323.177546, 128.541114)"><g><path d="M 9.296875 0 L 9.296875 -96.140625 L 72.71875 -96.140625 L 72.71875 -81.5625 L 26.515625 -81.5625 L 26.515625 -55.8125 L 69.296875 -55.8125 L 69.296875 -41.421875 L 26.515625 -41.421875 L 26.515625 -14.578125 L 72.90625 -14.578125 L 72.90625 0 Z M 9.296875 0 "/></g></g></g><g fill="#ffffff" fill-opacity="1"><g transform="translate(399.029284, 128.541114)"><g><path d="M 9.296875 0 L 9.296875 -96.140625 L 45.609375 -96.140625 C 52.878906 -96.140625 59.039062 -94.859375 64.09375 -92.296875 C 69.15625 -89.734375 73 -86.140625 75.625 -81.515625 C 78.25 -76.898438 79.5625 -71.515625 79.5625 -65.359375 C 79.5625 -59.210938 78.222656 -53.878906 75.546875 -49.359375 C 72.878906 -44.835938 68.988281 -41.351562 63.875 -38.90625 C 58.757812 -36.457031 52.523438 -35.234375 45.171875 -35.234375 L 19.359375 -35.234375 L 19.359375 -49.484375 L 43.421875 -49.484375 C 47.679688 -49.484375 51.1875 -50.109375 53.9375 -51.359375 C 56.6875 -52.609375 58.738281 -54.414062 60.09375 -56.78125 C 61.457031 -59.144531 62.140625 -62.003906 62.140625 -65.359375 C 62.140625 -68.796875 61.457031 -71.726562 60.09375 -74.15625 C 58.738281 -76.59375 56.675781 -78.457031 53.90625 -79.75 C 51.132812 -81.039062 47.617188 -81.6875 43.359375 -81.6875 L 26.515625 -81.6875 L 26.515625 0 Z M 63.546875 0 L 40.453125 -43.546875 L 59.171875 -43.546875 L 82.71875 0 Z M 63.546875 0 "/></g></g></g><g fill="#ffffff" fill-opacity="1"><g transform="translate(481.010829, 128.541114)"><g><path d="M 2.703125 0 L 36.390625 -96.140625 L 58.203125 -96.140625 L 92.453125 0 L 73.625 0 L 56.578125 -50.0625 C 54.898438 -55.269531 53.144531 -61.066406 51.3125 -67.453125 C 49.488281 -73.835938 47.460938 -81.179688 45.234375 -89.484375 L 49.09375 -89.484375 C 46.90625 -81.140625 44.925781 -73.753906 43.15625 -67.328125 C 41.394531 -60.898438 39.71875 -55.144531 38.125 -50.0625 L 21.421875 0 Z M 22.390625 -23.609375 L 22.390625 -37.546875 L 72.71875 -37.546875 L 72.71875 -23.609375 Z M 22.390625 -23.609375 "/></g></g></g><g fill="#ffffff" fill-opacity="1"><g transform="translate(560.346636, 128.541114)"><g><path d="M 4.84375 -81.5625 L 4.84375 -96.140625 L 81.421875 -96.140625 L 81.421875 -81.5625 L 51.75 -81.5625 L 51.75 0 L 34.578125 0 L 34.578125 -81.5625 Z M 4.84375 -81.5625 "/></g></g></g><g fill="#ffffff" fill-opacity="1"><g transform="translate(642.650808, 128.541114)"><g><path d="M 9.296875 0 L 9.296875 -96.140625 L 72.71875 -96.140625 L 72.71875 -81.5625 L 26.515625 -81.5625 L 26.515625 -55.8125 L 69.296875 -55.8125 L 69.296875 -41.421875 L 26.515625 -41.421875 L 26.515625 -14.578125 L 72.90625 -14.578125 L 72.90625 0 Z M 9.296875 0 "/></g></g></g><g fill="#ffffff" fill-opacity="1"><g transform="translate(718.502547, 128.541114)"><g><path d="M 41.8125 0 L 17.484375 0 L 17.484375 -14.84375 L 40.90625 -14.84375 C 47.695312 -14.84375 53.351562 -16.085938 57.875 -18.578125 C 62.394531 -21.078125 65.78125 -24.800781 68.03125 -29.75 C 70.289062 -34.695312 71.421875 -40.847656 71.421875 -48.203125 C 71.421875 -55.472656 70.289062 -61.554688 68.03125 -66.453125 C 65.78125 -71.359375 62.4375 -75.054688 58 -77.546875 C 53.570312 -80.046875 48.046875 -81.296875 41.421875 -81.296875 L 17.03125 -81.296875 L 17.03125 -96.140625 L 42.453125 -96.140625 C 52.003906 -96.140625 60.207031 -94.210938 67.0625 -90.359375 C 73.925781 -86.515625 79.207031 -81.007812 82.90625 -73.84375 C 86.601562 -66.6875 88.453125 -58.140625 88.453125 -48.203125 C 88.453125 -38.179688 86.601562 -29.578125 82.90625 -22.390625 C 79.207031 -15.203125 73.875 -9.671875 66.90625 -5.796875 C 59.9375 -1.929688 51.570312 0 41.8125 0 Z M 26.515625 -96.140625 L 26.515625 0 L 9.296875 0 L 9.296875 -96.140625 Z M 26.515625 -96.140625 "/></g></g></g></g></g><g transform="matrix(1, 0, 0, 1, 392, 222)"><g clip-path="url(#80115471a3)"><g fill="#ffffff" fill-opacity="1"><g transform="translate(0.709971, 28.786636)"><g><path d="M 1.203125 -19.328125 L 1.203125 -22.265625 L 18.53125 -22.265625 L 18.53125 -19.328125 L 11.578125 -19.328125 L 11.578125 0 L 8.1875 0 L 8.1875 -19.328125 Z M 1.203125 -19.328125 "/></g></g></g><g fill="#ffffff" fill-opacity="1"><g transform="translate(26.690697, 28.786636)"><g><path d="M 2.359375 0 L 2.359375 -22.265625 L 10.453125 -22.265625 C 12.140625 -22.265625 13.554688 -21.96875 14.703125 -21.375 C 15.859375 -20.789062 16.726562 -19.972656 17.3125 -18.921875 C 17.894531 -17.867188 18.1875 -16.65625 18.1875 -15.28125 C 18.1875 -13.894531 17.882812 -12.6875 17.28125 -11.65625 C 16.6875 -10.625 15.8125 -9.820312 14.65625 -9.25 C 13.5 -8.6875 12.070312 -8.40625 10.375 -8.40625 L 4.3125 -8.40625 L 4.3125 -11.3125 L 10.140625 -11.3125 C 11.203125 -11.3125 12.070312 -11.46875 12.75 -11.78125 C 13.425781 -12.09375 13.929688 -12.546875 14.265625 -13.140625 C 14.597656 -13.742188 14.765625 -14.457031 14.765625 -15.28125 C 14.765625 -16.113281 14.597656 -16.832031 14.265625 -17.4375 C 13.929688 -18.050781 13.425781 -18.519531 12.75 -18.84375 C 12.070312 -19.175781 11.191406 -19.34375 10.109375 -19.34375 L 5.765625 -19.34375 L 5.765625 0 Z M 15.0625 0 L 9.6875 -10.046875 L 13.4375 -10.046875 L 18.90625 0 Z M 15.0625 0 "/></g></g></g><g fill="#ffffff" fill-opacity="1"><g transform="translate(52.686354, 28.786636)"><g><path d="M 0.640625 0 L 8.609375 -22.265625 L 12.75 -22.265625 L 20.796875 0 L 17.140625 0 L 12.796875 -12.40625 C 12.460938 -13.4375 12.09375 -14.617188 11.6875 -15.953125 C 11.28125 -17.296875 10.8125 -18.921875 10.28125 -20.828125 L 11.03125 -20.828125 C 10.5 -18.910156 10.03125 -17.273438 9.625 -15.921875 C 9.226562 -14.566406 8.867188 -13.394531 8.546875 -12.40625 L 4.296875 0 Z M 4.984375 -5.84375 L 4.984375 -8.671875 L 16.46875 -8.671875 L 16.46875 -5.84375 Z M 4.984375 -5.84375 "/></g></g></g><g fill="#ffffff" fill-opacity="1"><g transform="translate(80.369261, 28.786636)"><g><path d="M 5.765625 -22.265625 L 5.765625 0 L 2.359375 0 L 2.359375 -22.265625 Z M 5.765625 -22.265625 "/></g></g></g><g fill="#ffffff" fill-opacity="1"><g transform="translate(94.733348, 28.786636)"><g><path d="M 2.359375 0 L 2.359375 -22.265625 L 6.25 -22.265625 L 14.640625 -8.96875 C 14.910156 -8.550781 15.210938 -8.046875 15.546875 -7.453125 C 15.890625 -6.867188 16.25 -6.207031 16.625 -5.46875 C 17.007812 -4.738281 17.390625 -3.960938 17.765625 -3.140625 L 17.359375 -2.96875 C 17.285156 -3.757812 17.226562 -4.5625 17.1875 -5.375 C 17.144531 -6.195312 17.113281 -6.960938 17.09375 -7.671875 C 17.082031 -8.390625 17.078125 -8.984375 17.078125 -9.453125 L 17.078125 -22.265625 L 20.5 -22.265625 L 20.5 0 L 16.59375 0 L 9.0625 -11.890625 C 8.707031 -12.472656 8.335938 -13.085938 7.953125 -13.734375 C 7.566406 -14.390625 7.132812 -15.144531 6.65625 -16 C 6.1875 -16.851562 5.628906 -17.875 4.984375 -19.0625 L 5.515625 -19.203125 C 5.578125 -18.097656 5.625 -17.070312 5.65625 -16.125 C 5.695312 -15.1875 5.726562 -14.351562 5.75 -13.625 C 5.78125 -12.90625 5.796875 -12.332031 5.796875 -11.90625 L 5.796875 0 Z M 2.359375 0 "/></g></g></g><g fill="#ffffff" fill-opacity="1"><g transform="translate(123.819807, 28.786636)"><g><path d="M 5.765625 -22.265625 L 5.765625 0 L 2.359375 0 L 2.359375 -22.265625 Z M 5.765625 -22.265625 "/></g></g></g><g fill="#ffffff" fill-opacity="1"><g transform="translate(138.183894, 28.786636)"><g><path d="M 2.359375 0 L 2.359375 -22.265625 L 6.25 -22.265625 L 14.640625 -8.96875 C 14.910156 -8.550781 15.210938 -8.046875 15.546875 -7.453125 C 15.890625 -6.867188 16.25 -6.207031 16.625 -5.46875 C 17.007812 -4.738281 17.390625 -3.960938 17.765625 -3.140625 L 17.359375 -2.96875 C 17.285156 -3.757812 17.226562 -4.5625 17.1875 -5.375 C 17.144531 -6.195312 17.113281 -6.960938 17.09375 -7.671875 C 17.082031 -8.390625 17.078125 -8.984375 17.078125 -9.453125 L 17.078125 -22.265625 L 20.5 -22.265625 L 20.5 0 L 16.59375 0 L 9.0625 -11.890625 C 8.707031 -12.472656 8.335938 -13.085938 7.953125 -13.734375 C 7.566406 -14.390625 7.132812 -15.144531 6.65625 -16 C 6.1875 -16.851562 5.628906 -17.875 4.984375 -19.0625 L 5.515625 -19.203125 C 5.578125 -18.097656 5.625 -17.070312 5.65625 -16.125 C 5.695312 -15.1875 5.726562 -14.351562 5.75 -13.625 C 5.78125 -12.90625 5.796875 -12.332031 5.796875 -11.90625 L 5.796875 0 Z M 2.359375 0 "/></g></g></g><g fill="#ffffff" fill-opacity="1"><g transform="translate(167.270353, 28.786636)"><g><path d="M 11.75 0.3125 C 9.726562 0.3125 7.957031 -0.15625 6.4375 -1.09375 C 4.914062 -2.03125 3.722656 -3.351562 2.859375 -5.0625 C 2.003906 -6.78125 1.578125 -8.796875 1.578125 -11.109375 C 1.578125 -13.460938 2.007812 -15.492188 2.875 -17.203125 C 3.75 -18.921875 4.941406 -20.242188 6.453125 -21.171875 C 7.960938 -22.109375 9.6875 -22.578125 11.625 -22.578125 C 12.820312 -22.578125 13.941406 -22.394531 14.984375 -22.03125 C 16.035156 -21.675781 16.972656 -21.171875 17.796875 -20.515625 C 18.617188 -19.859375 19.296875 -19.078125 19.828125 -18.171875 C 20.367188 -17.265625 20.734375 -16.257812 20.921875 -15.15625 L 17.453125 -15.15625 C 17.265625 -15.8125 16.992188 -16.40625 16.640625 -16.9375 C 16.296875 -17.476562 15.875 -17.9375 15.375 -18.3125 C 14.882812 -18.6875 14.328125 -18.972656 13.703125 -19.171875 C 13.078125 -19.378906 12.398438 -19.484375 11.671875 -19.484375 C 10.378906 -19.484375 9.222656 -19.15625 8.203125 -18.5 C 7.191406 -17.84375 6.394531 -16.890625 5.8125 -15.640625 C 5.226562 -14.398438 4.9375 -12.894531 4.9375 -11.125 C 4.9375 -9.363281 5.226562 -7.859375 5.8125 -6.609375 C 6.394531 -5.367188 7.195312 -4.421875 8.21875 -3.765625 C 9.25 -3.109375 10.429688 -2.78125 11.765625 -2.78125 C 12.953125 -2.78125 14 -3.023438 14.90625 -3.515625 C 15.8125 -4.003906 16.515625 -4.695312 17.015625 -5.59375 C 17.523438 -6.488281 17.78125 -7.535156 17.78125 -8.734375 L 18.671875 -8.609375 L 12.3125 -8.609375 L 12.3125 -11.390625 L 21.09375 -11.390625 L 21.09375 -8.84375 C 21.09375 -6.988281 20.6875 -5.375 19.875 -4 C 19.070312 -2.632812 17.96875 -1.570312 16.5625 -0.8125 C 15.15625 -0.0625 13.550781 0.3125 11.75 0.3125 Z M 11.75 0.3125 "/></g></g></g><g fill="#ffffff" fill-opacity="1"><g transform="translate(196.267224, 28.786636)"><g/></g></g><g fill="#ffffff" fill-opacity="1"><g transform="translate(210.467065, 28.786636)"><g><path d="M 7.96875 -4.03125 C 7.082031 -4.03125 6.273438 -4.242188 5.546875 -4.671875 C 4.828125 -5.097656 4.253906 -5.675781 3.828125 -6.40625 C 3.398438 -7.132812 3.1875 -7.9375 3.1875 -8.8125 C 3.1875 -9.695312 3.398438 -10.5 3.828125 -11.21875 C 4.253906 -11.945312 4.828125 -12.523438 5.546875 -12.953125 C 6.273438 -13.378906 7.082031 -13.59375 7.96875 -13.59375 C 8.851562 -13.59375 9.65625 -13.378906 10.375 -12.953125 C 11.09375 -12.523438 11.664062 -11.945312 12.09375 -11.21875 C 12.53125 -10.5 12.75 -9.695312 12.75 -8.8125 C 12.75 -7.9375 12.53125 -7.132812 12.09375 -6.40625 C 11.664062 -5.675781 11.09375 -5.097656 10.375 -4.671875 C 9.65625 -4.242188 8.851562 -4.03125 7.96875 -4.03125 Z M 7.96875 -4.03125 "/></g></g></g><g fill="#ffffff" fill-opacity="1"><g transform="translate(232.625349, 28.786636)"><g/></g></g><g fill="#ffffff" fill-opacity="1"><g transform="translate(246.825204, 28.786636)"><g><path d="M 9.59375 0 L 4.09375 0 L 4.09375 -2.953125 L 9.40625 -2.953125 C 11.101562 -2.953125 12.507812 -3.269531 13.625 -3.90625 C 14.75 -4.550781 15.585938 -5.484375 16.140625 -6.703125 C 16.691406 -7.929688 16.96875 -9.414062 16.96875 -11.15625 C 16.96875 -12.894531 16.691406 -14.367188 16.140625 -15.578125 C 15.585938 -16.796875 14.765625 -17.71875 13.671875 -18.34375 C 12.585938 -18.976562 11.234375 -19.296875 9.609375 -19.296875 L 3.984375 -19.296875 L 3.984375 -22.265625 L 9.8125 -22.265625 C 12 -22.265625 13.875 -21.816406 15.4375 -20.921875 C 17.007812 -20.035156 18.210938 -18.757812 19.046875 -17.09375 C 19.890625 -15.4375 20.3125 -13.457031 20.3125 -11.15625 C 20.3125 -8.84375 19.890625 -6.851562 19.046875 -5.1875 C 18.203125 -3.519531 16.984375 -2.238281 15.390625 -1.34375 C 13.796875 -0.445312 11.863281 0 9.59375 0 Z M 5.765625 -22.265625 L 5.765625 0 L 2.359375 0 L 2.359375 -22.265625 Z M 5.765625 -22.265625 "/></g></g></g><g fill="#ffffff" fill-opacity="1"><g transform="translate(274.941109, 28.786636)"><g><path d="M 2.359375 0 L 2.359375 -22.265625 L 16.59375 -22.265625 L 16.59375 -19.328125 L 5.765625 -19.328125 L 5.765625 -12.71875 L 15.8125 -12.71875 L 15.8125 -9.8125 L 5.765625 -9.8125 L 5.765625 -2.921875 L 16.671875 -2.921875 L 16.671875 0 Z M 2.359375 0 "/></g></g></g><g fill="#ffffff" fill-opacity="1"><g transform="translate(299.533199, 28.786636)"><g><path d="M 11.6875 0.3125 C 9.726562 0.3125 7.988281 -0.148438 6.46875 -1.078125 C 4.945312 -2.003906 3.75 -3.320312 2.875 -5.03125 C 2.007812 -6.738281 1.578125 -8.765625 1.578125 -11.109375 C 1.578125 -13.472656 2.015625 -15.507812 2.890625 -17.21875 C 3.765625 -18.9375 4.960938 -20.257812 6.484375 -21.1875 C 8.003906 -22.113281 9.738281 -22.578125 11.6875 -22.578125 C 12.863281 -22.578125 13.96875 -22.40625 15 -22.0625 C 16.039062 -21.71875 16.96875 -21.21875 17.78125 -20.5625 C 18.601562 -19.90625 19.28125 -19.109375 19.8125 -18.171875 C 20.351562 -17.242188 20.71875 -16.1875 20.90625 -15 L 17.5 -15 C 17.34375 -15.726562 17.085938 -16.367188 16.734375 -16.921875 C 16.390625 -17.472656 15.960938 -17.9375 15.453125 -18.3125 C 14.941406 -18.695312 14.367188 -18.988281 13.734375 -19.1875 C 13.097656 -19.382812 12.425781 -19.484375 11.71875 -19.484375 C 10.394531 -19.484375 9.222656 -19.148438 8.203125 -18.484375 C 7.179688 -17.828125 6.378906 -16.875 5.796875 -15.625 C 5.222656 -14.382812 4.9375 -12.878906 4.9375 -11.109375 C 4.9375 -9.335938 5.226562 -7.828125 5.8125 -6.578125 C 6.394531 -5.335938 7.195312 -4.394531 8.21875 -3.75 C 9.238281 -3.101562 10.40625 -2.78125 11.71875 -2.78125 C 12.414062 -2.78125 13.082031 -2.875 13.71875 -3.0625 C 14.351562 -3.257812 14.925781 -3.546875 15.4375 -3.921875 C 15.945312 -4.304688 16.378906 -4.773438 16.734375 -5.328125 C 17.085938 -5.890625 17.34375 -6.53125 17.5 -7.25 L 20.90625 -7.25 C 20.738281 -6.132812 20.390625 -5.113281 19.859375 -4.1875 C 19.335938 -3.269531 18.671875 -2.472656 17.859375 -1.796875 C 17.054688 -1.117188 16.128906 -0.597656 15.078125 -0.234375 C 14.035156 0.128906 12.90625 0.3125 11.6875 0.3125 Z M 11.6875 0.3125 "/></g></g></g><g fill="#ffffff" fill-opacity="1"><g transform="translate(328.141867, 28.786636)"><g><path d="M 5.765625 -22.265625 L 5.765625 0 L 2.359375 0 L 2.359375 -22.265625 Z M 5.765625 -22.265625 "/></g></g></g><g fill="#ffffff" fill-opacity="1"><g transform="translate(342.505967, 28.786636)"><g><path d="M 2.359375 0 L 2.359375 -22.265625 L 10.390625 -22.265625 C 12.085938 -22.265625 13.507812 -21.953125 14.65625 -21.328125 C 15.800781 -20.710938 16.664062 -19.863281 17.25 -18.78125 C 17.832031 -17.707031 18.125 -16.484375 18.125 -15.109375 C 18.125 -13.722656 17.828125 -12.488281 17.234375 -11.40625 C 16.648438 -10.320312 15.78125 -9.46875 14.625 -8.84375 C 13.476562 -8.226562 12.054688 -7.921875 10.359375 -7.921875 L 4.6875 -7.921875 L 4.6875 -10.8125 L 10.078125 -10.8125 C 11.148438 -10.8125 12.023438 -10.992188 12.703125 -11.359375 C 13.390625 -11.722656 13.894531 -12.226562 14.21875 -12.875 C 14.550781 -13.519531 14.71875 -14.265625 14.71875 -15.109375 C 14.71875 -15.941406 14.550781 -16.675781 14.21875 -17.3125 C 13.894531 -17.945312 13.390625 -18.441406 12.703125 -18.796875 C 12.015625 -19.160156 11.132812 -19.34375 10.0625 -19.34375 L 5.765625 -19.34375 L 5.765625 0 Z M 2.359375 0 "/></g></g></g><g fill="#ffffff" fill-opacity="1"><g transform="translate(368.217914, 28.786636)"><g><path d="M 2.359375 0 L 2.359375 -22.265625 L 5.765625 -22.265625 L 5.765625 -2.921875 L 15.921875 -2.921875 L 15.921875 0 Z M 2.359375 0 "/></g></g></g><g fill="#ffffff" fill-opacity="1"><g transform="translate(391.60056, 28.786636)"><g><path d="M 5.765625 -22.265625 L 5.765625 0 L 2.359375 0 L 2.359375 -22.265625 Z M 5.765625 -22.265625 "/></g></g></g><g fill="#ffffff" fill-opacity="1"><g transform="translate(405.96466, 28.786636)"><g><path d="M 2.359375 0 L 2.359375 -22.265625 L 6.25 -22.265625 L 14.640625 -8.96875 C 14.910156 -8.550781 15.210938 -8.046875 15.546875 -7.453125 C 15.890625 -6.867188 16.25 -6.207031 16.625 -5.46875 C 17.007812 -4.738281 17.390625 -3.960938 17.765625 -3.140625 L 17.359375 -2.96875 C 17.285156 -3.757812 17.226562 -4.5625 17.1875 -5.375 C 17.144531 -6.195312 17.113281 -6.960938 17.09375 -7.671875 C 17.082031 -8.390625 17.078125 -8.984375 17.078125 -9.453125 L 17.078125 -22.265625 L 20.5 -22.265625 L 20.5 0 L 16.59375 0 L 9.0625 -11.890625 C 8.707031 -12.472656 8.335938 -13.085938 7.953125 -13.734375 C 7.566406 -14.390625 7.132812 -15.144531 6.65625 -16 C 6.1875 -16.851562 5.628906 -17.875 4.984375 -19.0625 L 5.515625 -19.203125 C 5.578125 -18.097656 5.625 -17.070312 5.65625 -16.125 C 5.695312 -15.1875 5.726562 -14.351562 5.75 -13.625 C 5.78125 -12.90625 5.796875 -12.332031 5.796875 -11.90625 L 5.796875 0 Z M 2.359375 0 "/></g></g></g><g fill="#ffffff" fill-opacity="1"><g transform="translate(435.051134, 28.786636)"><g><path d="M 2.359375 0 L 2.359375 -22.265625 L 16.59375 -22.265625 L 16.59375 -19.328125 L 5.765625 -19.328125 L 5.765625 -12.71875 L 15.8125 -12.71875 L 15.8125 -9.8125 L 5.765625 -9.8125 L 5.765625 -2.921875 L 16.671875 -2.921875 L 16.671875 0 Z M 2.359375 0 "/></g></g></g><g fill="#ffffff" fill-opacity="1"><g transform="translate(459.643224, 28.786636)"><g/></g></g><g fill="#ffffff" fill-opacity="1"><g transform="translate(473.843052, 28.786636)"><g><path d="M 7.96875 -4.03125 C 7.082031 -4.03125 6.273438 -4.242188 5.546875 -4.671875 C 4.828125 -5.097656 4.253906 -5.675781 3.828125 -6.40625 C 3.398438 -7.132812 3.1875 -7.9375 3.1875 -8.8125 C 3.1875 -9.695312 3.398438 -10.5 3.828125 -11.21875 C 4.253906 -11.945312 4.828125 -12.523438 5.546875 -12.953125 C 6.273438 -13.378906 7.082031 -13.59375 7.96875 -13.59375 C 8.851562 -13.59375 9.65625 -13.378906 10.375 -12.953125 C 11.09375 -12.523438 11.664062 -11.945312 12.09375 -11.21875 C 12.53125 -10.5 12.75 -9.695312 12.75 -8.8125 C 12.75 -7.9375 12.53125 -7.132812 12.09375 -6.40625 C 11.664062 -5.675781 11.09375 -5.097656 10.375 -4.671875 C 9.65625 -4.242188 8.851562 -4.03125 7.96875 -4.03125 Z M 7.96875 -4.03125 "/></g></g></g><g fill="#ffffff" fill-opacity="1"><g transform="translate(510.201204, 28.786636)"><g><path d="M 9.59375 0 L 4.09375 0 L 4.09375 -2.953125 L 9.40625 -2.953125 C 11.101562 -2.953125 12.507812 -3.269531 13.625 -3.90625 C 14.75 -4.550781 15.585938 -5.484375 16.140625 -6.703125 C 16.691406 -7.929688 16.96875 -9.414062 16.96875 -11.15625 C 16.96875 -12.894531 16.691406 -14.367188 16.140625 -15.578125 C 15.585938 -16.796875 14.765625 -17.71875 13.671875 -18.34375 C 12.585938 -18.976562 11.234375 -19.296875 9.609375 -19.296875 L 3.984375 -19.296875 L 3.984375 -22.265625 L 9.8125 -22.265625 C 12 -22.265625 13.875 -21.816406 15.4375 -20.921875 C 17.007812 -20.035156 18.210938 -18.757812 19.046875 -17.09375 C 19.890625 -15.4375 20.3125 -13.457031 20.3125 -11.15625 C 20.3125 -8.84375 19.890625 -6.851562 19.046875 -5.1875 C 18.203125 -3.519531 16.984375 -2.238281 15.390625 -1.34375 C 13.796875 -0.445312 11.863281 0 9.59375 0 Z M 5.765625 -22.265625 L 5.765625 0 L 2.359375 0 L 2.359375 -22.265625 Z M 5.765625 -22.265625 "/></g></g></g><g fill="#ffffff" fill-opacity="1"><g transform="translate(538.317109, 28.786636)"><g><path d="M 2.359375 0 L 2.359375 -22.265625 L 16.59375 -22.265625 L 16.59375 -19.328125 L 5.765625 -19.328125 L 5.765625 -12.71875 L 15.8125 -12.71875 L 15.8125 -9.8125 L 5.765625 -9.8125 L 5.765625 -2.921875 L 16.671875 -2.921875 L 16.671875 0 Z M 2.359375 0 "/></g></g></g><g fill="#ffffff" fill-opacity="1"><g transform="translate(562.909199, 28.786636)"><g><path d="M 8.703125 0 L 0.640625 -22.265625 L 4.296875 -22.265625 L 8.65625 -9.84375 C 8.96875 -8.882812 9.332031 -7.71875 9.75 -6.34375 C 10.164062 -4.96875 10.640625 -3.347656 11.171875 -1.484375 L 10.421875 -1.484375 C 10.953125 -3.378906 11.421875 -5.003906 11.828125 -6.359375 C 12.234375 -7.722656 12.59375 -8.882812 12.90625 -9.84375 L 17.140625 -22.265625 L 20.78125 -22.265625 L 12.828125 0 Z M 8.703125 0 "/></g></g></g><g fill="#ffffff" fill-opacity="1"><g transform="translate(590.562229, 28.786636)"><g><path d="M 2.359375 0 L 2.359375 -22.265625 L 16.59375 -22.265625 L 16.59375 -19.328125 L 5.765625 -19.328125 L 5.765625 -12.71875 L 15.8125 -12.71875 L 15.8125 -9.8125 L 5.765625 -9.8125 L 5.765625 -2.921875 L 16.671875 -2.921875 L 16.671875 0 Z M 2.359375 0 "/></g></g></g><g fill="#ffffff" fill-opacity="1"><g transform="translate(615.154374, 28.786636)"><g><path d="M 2.359375 0 L 2.359375 -22.265625 L 5.765625 -22.265625 L 5.765625 -2.921875 L 15.921875 -2.921875 L 15.921875 0 Z M 2.359375 0 "/></g></g></g><g fill="#ffffff" fill-opacity="1"><g transform="translate(637.670619, 28.786636)"><g><path d="M 11.6875 0.3125 C 9.738281 0.3125 8.003906 -0.148438 6.484375 -1.078125 C 4.972656 -2.003906 3.773438 -3.320312 2.890625 -5.03125 C 2.015625 -6.738281 1.578125 -8.765625 1.578125 -11.109375 C 1.578125 -13.472656 2.015625 -15.507812 2.890625 -17.21875 C 3.773438 -18.9375 4.972656 -20.257812 6.484375 -21.1875 C 8.003906 -22.113281 9.738281 -22.578125 11.6875 -22.578125 C 13.613281 -22.578125 15.335938 -22.113281 16.859375 -21.1875 C 18.378906 -20.257812 19.570312 -18.9375 20.4375 -17.21875 C 21.3125 -15.507812 21.75 -13.472656 21.75 -11.109375 C 21.75 -8.765625 21.3125 -6.738281 20.4375 -5.03125 C 19.570312 -3.320312 18.378906 -2.003906 16.859375 -1.078125 C 15.335938 -0.148438 13.613281 0.3125 11.6875 0.3125 Z M 11.6875 -2.78125 C 12.945312 -2.78125 14.082031 -3.097656 15.09375 -3.734375 C 16.101562 -4.367188 16.898438 -5.304688 17.484375 -6.546875 C 18.078125 -7.796875 18.375 -9.316406 18.375 -11.109375 C 18.375 -12.921875 18.078125 -14.445312 17.484375 -15.6875 C 16.898438 -16.9375 16.101562 -17.878906 15.09375 -18.515625 C 14.082031 -19.160156 12.945312 -19.484375 11.6875 -19.484375 C 10.40625 -19.484375 9.253906 -19.160156 8.234375 -18.515625 C 7.222656 -17.867188 6.421875 -16.921875 5.828125 -15.671875 C 5.234375 -14.429688 4.9375 -12.910156 4.9375 -11.109375 C 4.9375 -9.316406 5.234375 -7.800781 5.828125 -6.5625 C 6.421875 -5.320312 7.222656 -4.378906 8.234375 -3.734375 C 9.253906 -3.097656 10.40625 -2.78125 11.6875 -2.78125 Z M 11.6875 -2.78125 "/></g></g></g><g fill="#ffffff" fill-opacity="1"><g transform="translate(667.23487, 28.786636)"><g><path d="M 2.359375 0 L 2.359375 -22.265625 L 10.390625 -22.265625 C 12.085938 -22.265625 13.507812 -21.953125 14.65625 -21.328125 C 15.800781 -20.710938 16.664062 -19.863281 17.25 -18.78125 C 17.832031 -17.707031 18.125 -16.484375 18.125 -15.109375 C 18.125 -13.722656 17.828125 -12.488281 17.234375 -11.40625 C 16.648438 -10.320312 15.78125 -9.46875 14.625 -8.84375 C 13.476562 -8.226562 12.054688 -7.921875 10.359375 -7.921875 L 4.6875 -7.921875 L 4.6875 -10.8125 L 10.078125 -10.8125 C 11.148438 -10.8125 12.023438 -10.992188 12.703125 -11.359375 C 13.390625 -11.722656 13.894531 -12.226562 14.21875 -12.875 C 14.550781 -13.519531 14.71875 -14.265625 14.71875 -15.109375 C 14.71875 -15.941406 14.550781 -16.675781 14.21875 -17.3125 C 13.894531 -17.945312 13.390625 -18.441406 12.703125 -18.796875 C 12.015625 -19.160156 11.132812 -19.34375 10.0625 -19.34375 L 5.765625 -19.34375 L 5.765625 0 Z M 2.359375 0 "/></g></g></g><g fill="#ffffff" fill-opacity="1"><g transform="translate(692.946871, 28.786636)"><g><path d="M 2.359375 0 L 2.359375 -22.265625 L 7.3125 -22.265625 L 12.203125 -9.421875 C 12.335938 -9.054688 12.492188 -8.585938 12.671875 -8.015625 C 12.847656 -7.441406 13.03125 -6.828125 13.21875 -6.171875 C 13.40625 -5.515625 13.585938 -4.867188 13.765625 -4.234375 C 13.941406 -3.609375 14.085938 -3.050781 14.203125 -2.5625 L 13.46875 -2.5625 C 13.601562 -3.03125 13.753906 -3.578125 13.921875 -4.203125 C 14.085938 -4.828125 14.265625 -5.46875 14.453125 -6.125 C 14.648438 -6.78125 14.835938 -7.398438 15.015625 -7.984375 C 15.191406 -8.566406 15.347656 -9.046875 15.484375 -9.421875 L 20.296875 -22.265625 L 25.265625 -22.265625 L 25.265625 0 L 21.90625 0 L 21.90625 -12.015625 C 21.90625 -12.484375 21.90625 -13.03125 21.90625 -13.65625 C 21.914062 -14.28125 21.929688 -14.941406 21.953125 -15.640625 C 21.972656 -16.335938 21.988281 -17.039062 22 -17.75 C 22.019531 -18.46875 22.035156 -19.15625 22.046875 -19.8125 L 22.34375 -19.8125 C 22.125 -19.070312 21.894531 -18.328125 21.65625 -17.578125 C 21.425781 -16.828125 21.195312 -16.097656 20.96875 -15.390625 C 20.75 -14.691406 20.539062 -14.050781 20.34375 -13.46875 C 20.144531 -12.882812 19.976562 -12.398438 19.84375 -12.015625 L 15.25 0 L 12.375 0 L 7.734375 -12.015625 C 7.585938 -12.390625 7.414062 -12.863281 7.21875 -13.4375 C 7.03125 -14.007812 6.820312 -14.644531 6.59375 -15.34375 C 6.375 -16.039062 6.140625 -16.769531 5.890625 -17.53125 C 5.648438 -18.289062 5.410156 -19.050781 5.171875 -19.8125 L 5.53125 -19.8125 C 5.539062 -19.1875 5.550781 -18.523438 5.5625 -17.828125 C 5.582031 -17.140625 5.597656 -16.441406 5.609375 -15.734375 C 5.617188 -15.023438 5.628906 -14.347656 5.640625 -13.703125 C 5.660156 -13.066406 5.671875 -12.503906 5.671875 -12.015625 L 5.671875 0 Z M 2.359375 0 "/></g></g></g><g fill="#ffffff" fill-opacity="1"><g transform="translate(726.811369, 28.786636)"><g><path d="M 2.359375 0 L 2.359375 -22.265625 L 16.59375 -22.265625 L 16.59375 -19.328125 L 5.765625 -19.328125 L 5.765625 -12.71875 L 15.8125 -12.71875 L 15.8125 -9.8125 L 5.765625 -9.8125 L 5.765625 -2.921875 L 16.671875 -2.921875 L 16.671875 0 Z M 2.359375 0 "/></g></g></g><g fill="#ffffff" fill-opacity="1"><g transform="translate(751.40346, 28.786636)"><g><path d="M 2.359375 0 L 2.359375 -22.265625 L 6.25 -22.265625 L 14.640625 -8.96875 C 14.910156 -8.550781 15.210938 -8.046875 15.546875 -7.453125 C 15.890625 -6.867188 16.25 -6.207031 16.625 -5.46875 C 17.007812 -4.738281 17.390625 -3.960938 17.765625 -3.140625 L 17.359375 -2.96875 C 17.285156 -3.757812 17.226562 -4.5625 17.1875 -5.375 C 17.144531 -6.195312 17.113281 -6.960938 17.09375 -7.671875 C 17.082031 -8.390625 17.078125 -8.984375 17.078125 -9.453125 L 17.078125 -22.265625 L 20.5 -22.265625 L 20.5 0 L 16.59375 0 L 9.0625 -11.890625 C 8.707031 -12.472656 8.335938 -13.085938 7.953125 -13.734375 C 7.566406 -14.390625 7.132812 -15.144531 6.65625 -16 C 6.1875 -16.851562 5.628906 -17.875 4.984375 -19.0625 L 5.515625 -19.203125 C 5.578125 -18.097656 5.625 -17.070312 5.65625 -16.125 C 5.695312 -15.1875 5.726562 -14.351562 5.75 -13.625 C 5.78125 -12.90625 5.796875 -12.332031 5.796875 -11.90625 L 5.796875 0 Z M 2.359375 0 "/></g></g></g><g fill="#ffffff" fill-opacity="1"><g transform="translate(780.489906, 28.786636)"><g><path d="M 1.203125 -19.328125 L 1.203125 -22.265625 L 18.53125 -22.265625 L 18.53125 -19.328125 L 11.578125 -19.328125 L 11.578125 0 L 8.1875 0 L 8.1875 -19.328125 Z M 1.203125 -19.328125 "/></g></g></g><g fill="#ffffff" fill-opacity="1"><g transform="translate(806.480664, 28.786636)"><g/></g></g><g fill="#ffffff" fill-opacity="1"><g transform="translate(820.680506, 28.786636)"><g/></g></g></g></g><g clip-path="url(#b842ef0d04)"><path fill="#d6ad43" d="M 185.8125 247.769531 L 162.957031 208.515625 L 127.011719 247.527344 L 49.445312 247.511719 L 208.335938 75.023438 L 183.128906 75.023438 L 135.914062 126.273438 L 105.894531 74.769531 L 84.453125 74.769531 L 122.875 140.742188 L 109.210938 155.578125 L 50.941406 55.507812 L 116.976562 55.507812 L 139.425781 94.023438 L 174.671875 55.765625 L 252.273438 55.765625 L 93.375 228.261719 L 118.554688 228.265625 L 166.476562 176.257812 L 196.914062 228.53125 L 218.382812 228.558594 L 179.511719 161.804688 L 193.179688 146.96875 L 251.921875 247.867188 Z M 185.8125 247.769531 " fill-opacity="1" fill-rule="nonzero"/></g><g clip-path="url(#8078e24549)"><path fill="#d6ad43" d="M 7.96875 1.996094 C 7.523438 1.996094 7.082031 2.039062 6.644531 2.125 C 6.203125 2.210938 5.777344 2.34375 5.367188 2.511719 C 4.953125 2.683594 4.5625 2.894531 4.191406 3.140625 C 3.820312 3.390625 3.476562 3.671875 3.160156 3.988281 C 2.84375 4.304688 2.5625 4.648438 2.3125 5.019531 C 2.066406 5.390625 1.855469 5.78125 1.683594 6.195312 C 1.511719 6.609375 1.382812 7.035156 1.296875 7.472656 C 1.210938 7.910156 1.164062 8.351562 1.164062 8.800781 L 1.164062 294.578125 C 1.164062 295.023438 1.210938 295.464844 1.296875 295.902344 C 1.382812 296.34375 1.511719 296.769531 1.683594 297.179688 C 1.855469 297.59375 2.066406 297.984375 2.3125 298.355469 C 2.5625 298.726562 2.84375 299.070312 3.160156 299.386719 C 3.476562 299.703125 3.820312 299.984375 4.191406 300.234375 C 4.5625 300.480469 4.953125 300.691406 5.367188 300.863281 C 5.777344 301.035156 6.203125 301.164062 6.644531 301.25 C 7.082031 301.335938 7.523438 301.378906 7.96875 301.378906 L 293.746094 301.378906 C 294.195312 301.378906 294.636719 301.335938 295.074219 301.25 C 295.511719 301.164062 295.9375 301.035156 296.351562 300.863281 C 296.765625 300.691406 297.15625 300.480469 297.527344 300.234375 C 297.898438 299.984375 298.242188 299.703125 298.558594 299.386719 C 298.875 299.070312 299.15625 298.726562 299.40625 298.355469 C 299.652344 297.984375 299.863281 297.59375 300.035156 297.179688 C 300.203125 296.769531 300.332031 296.34375 300.421875 295.902344 C 300.507812 295.464844 300.550781 295.023438 300.550781 294.578125 L 300.550781 8.800781 C 300.550781 8.351562 300.507812 7.910156 300.421875 7.472656 C 300.332031 7.035156 300.203125 6.609375 300.035156 6.195312 C 299.863281 5.78125 299.652344 5.390625 299.40625 5.019531 C 299.15625 4.648438 298.875 4.304688 298.558594 3.988281 C 298.242188 3.671875 297.898438 3.390625 297.527344 3.140625 C 297.15625 2.894531 296.765625 2.683594 296.351562 2.511719 C 295.9375 2.34375 295.511719 2.210938 295.074219 2.125 C 294.636719 2.039062 294.195312 1.996094 293.746094 1.996094 Z M 14.773438 15.601562 L 286.945312 15.601562 L 286.945312 287.773438 L 14.773438 287.773438 Z M 14.773438 15.601562 " fill-opacity="1" fill-rule="nonzero"/></g></svg>