<svg xmlns="http://www.w3.org/2000/svg" xmlns:xlink="http://www.w3.org/1999/xlink" width="1663" zoomAndPan="magnify" viewBox="0 0 1247.25 271.499997" height="362" preserveAspectRatio="xMidYMid meet" version="1.0"><defs><g/><clipPath id="2448f43753"><rect x="0" width="864" y="0" height="172"/></clipPath><clipPath id="008eee8d2a"><path d="M 0.773438 0 L 286.746094 0 L 286.746094 271 L 0.773438 271 Z M 0.773438 0 " clip-rule="nonzero"/></clipPath></defs><g transform="matrix(1, 0, 0, 1, 333, 49)"><g clip-path="url(#2448f43753)"><g fill="#ffffff" fill-opacity="1"><g transform="translate(0.928481, 137.113454)"><g><path d="M 3.09375 0 L 44.671875 -59.265625 L 44.671875 -45.421875 L 5.984375 -102.546875 L 27.1875 -102.546875 L 39.640625 -83.765625 C 41.660156 -80.773438 43.359375 -78.0625 44.734375 -75.625 C 46.109375 -73.195312 47.390625 -70.835938 48.578125 -68.546875 C 49.773438 -66.253906 51.085938 -63.820312 52.515625 -61.25 L 48.046875 -61.25 C 49.503906 -63.820312 50.832031 -66.242188 52.03125 -68.515625 C 53.226562 -70.785156 54.535156 -73.144531 55.953125 -75.59375 C 57.378906 -78.050781 59.078125 -80.773438 61.046875 -83.765625 L 73.78125 -102.546875 L 94.421875 -102.546875 L 56.296875 -46.390625 L 56.296875 -59.609375 L 97.109375 0 L 75.640625 0 L 60.078125 -23.0625 C 58.296875 -25.71875 56.785156 -28.054688 55.546875 -30.078125 C 54.304688 -32.097656 53.15625 -34.054688 52.09375 -35.953125 C 51.039062 -37.859375 49.847656 -39.984375 48.515625 -42.328125 L 51.6875 -42.328125 C 50.40625 -40.035156 49.222656 -37.9375 48.140625 -36.03125 C 47.066406 -34.125 45.894531 -32.160156 44.625 -30.140625 C 43.363281 -28.117188 41.816406 -25.757812 39.984375 -23.0625 L 24.15625 0 Z M 3.09375 0 "/></g></g></g><g fill="#ffffff" fill-opacity="1"><g transform="translate(89.890484, 137.113454)"><g><path d="M 53.828125 1.453125 C 44.785156 1.453125 36.695312 -0.65625 29.5625 -4.875 C 22.425781 -9.101562 16.816406 -15.148438 12.734375 -23.015625 C 8.648438 -30.890625 6.609375 -40.285156 6.609375 -51.203125 C 6.609375 -62.210938 8.660156 -71.648438 12.765625 -79.515625 C 16.867188 -87.390625 22.488281 -93.4375 29.625 -97.65625 C 36.757812 -101.882812 44.828125 -104 53.828125 -104 C 59.515625 -104 64.8125 -103.179688 69.71875 -101.546875 C 74.625 -99.921875 78.992188 -97.570312 82.828125 -94.5 C 86.660156 -91.425781 89.816406 -87.675781 92.296875 -83.25 C 94.773438 -78.820312 96.425781 -73.804688 97.25 -68.203125 L 78.734375 -68.203125 C 78.140625 -71.273438 77.117188 -74.003906 75.671875 -76.390625 C 74.222656 -78.773438 72.410156 -80.804688 70.234375 -82.484375 C 68.054688 -84.160156 65.601562 -85.421875 62.875 -86.265625 C 60.144531 -87.117188 57.21875 -87.546875 54.09375 -87.546875 C 48.363281 -87.546875 43.304688 -86.109375 38.921875 -83.234375 C 34.535156 -80.367188 31.125 -76.226562 28.6875 -70.8125 C 26.257812 -65.40625 25.046875 -58.867188 25.046875 -51.203125 C 25.046875 -43.492188 26.273438 -36.929688 28.734375 -31.515625 C 31.191406 -26.109375 34.597656 -22.003906 38.953125 -19.203125 C 43.316406 -16.398438 48.363281 -15 54.09375 -15 C 57.21875 -15 60.128906 -15.421875 62.828125 -16.265625 C 65.535156 -17.117188 67.976562 -18.367188 70.15625 -20.015625 C 72.34375 -21.671875 74.179688 -23.703125 75.671875 -26.109375 C 77.160156 -28.523438 78.203125 -31.269531 78.796875 -34.34375 L 97.3125 -34.34375 C 96.582031 -29.25 95.035156 -24.546875 92.671875 -20.234375 C 90.304688 -15.921875 87.242188 -12.132812 83.484375 -8.875 C 79.722656 -5.613281 75.34375 -3.078125 70.34375 -1.265625 C 65.34375 0.546875 59.835938 1.453125 53.828125 1.453125 Z M 53.828125 1.453125 "/></g></g></g><g fill="#ffffff" fill-opacity="1"><g transform="translate(189.107781, 137.113454)"><g><path d="M 9.90625 0 L 9.90625 -102.546875 L 77.5625 -102.546875 L 77.5625 -87 L 28.28125 -87 L 28.28125 -59.53125 L 73.921875 -59.53125 L 73.921875 -44.1875 L 28.28125 -44.1875 L 28.28125 -15.546875 L 77.765625 -15.546875 L 77.765625 0 Z M 9.90625 0 "/></g></g></g><g fill="#ffffff" fill-opacity="1"><g transform="translate(270.017256, 137.113454)"><g><path d="M 9.90625 0 L 9.90625 -102.546875 L 28.28125 -102.546875 L 28.28125 -15.546875 L 74.0625 -15.546875 L 74.0625 0 Z M 9.90625 0 "/></g></g></g><g fill="#ffffff" fill-opacity="1"><g transform="translate(345.007641, 137.113454)"><g><path d="M 9.90625 0 L 9.90625 -102.546875 L 77.5625 -102.546875 L 77.5625 -87 L 28.28125 -87 L 28.28125 -59.53125 L 73.921875 -59.53125 L 73.921875 -44.1875 L 28.28125 -44.1875 L 28.28125 -15.546875 L 77.765625 -15.546875 L 77.765625 0 Z M 9.90625 0 "/></g></g></g><g fill="#ffffff" fill-opacity="1"><g transform="translate(425.917086, 137.113454)"><g><path d="M 9.90625 0 L 9.90625 -102.546875 L 48.65625 -102.546875 C 56.414062 -102.546875 62.988281 -101.179688 68.375 -98.453125 C 73.769531 -95.722656 77.863281 -91.890625 80.65625 -86.953125 C 83.457031 -82.023438 84.859375 -76.28125 84.859375 -69.71875 C 84.859375 -63.15625 83.4375 -57.460938 80.59375 -52.640625 C 77.75 -47.828125 73.597656 -44.113281 68.140625 -41.5 C 62.679688 -38.882812 56.023438 -37.578125 48.171875 -37.578125 L 20.640625 -37.578125 L 20.640625 -52.78125 L 46.3125 -52.78125 C 50.851562 -52.78125 54.59375 -53.445312 57.53125 -54.78125 C 60.46875 -56.113281 62.660156 -58.039062 64.109375 -60.5625 C 65.554688 -63.082031 66.28125 -66.132812 66.28125 -69.71875 C 66.28125 -73.382812 65.554688 -76.515625 64.109375 -79.109375 C 62.660156 -81.703125 60.457031 -83.6875 57.5 -85.0625 C 54.539062 -86.4375 50.789062 -87.125 46.25 -87.125 L 28.28125 -87.125 L 28.28125 0 Z M 67.796875 0 L 43.15625 -46.453125 L 63.109375 -46.453125 L 88.234375 0 Z M 67.796875 0 "/></g></g></g><g fill="#ffffff" fill-opacity="1"><g transform="translate(513.365066, 137.113454)"><g><path d="M 2.890625 0 L 38.8125 -102.546875 L 62.078125 -102.546875 L 98.625 0 L 78.53125 0 L 60.359375 -53.40625 C 58.566406 -58.957031 56.695312 -65.140625 54.75 -71.953125 C 52.800781 -78.765625 50.632812 -86.597656 48.25 -95.453125 L 52.375 -95.453125 C 50.03125 -86.554688 47.914062 -78.675781 46.03125 -71.8125 C 44.15625 -64.957031 42.367188 -58.820312 40.671875 -53.40625 L 22.84375 0 Z M 23.875 -25.1875 L 23.875 -40.0625 L 77.5625 -40.0625 L 77.5625 -25.1875 Z M 23.875 -25.1875 "/></g></g></g><g fill="#ffffff" fill-opacity="1"><g transform="translate(597.990894, 137.113454)"><g><path d="M 5.15625 -87 L 5.15625 -102.546875 L 86.859375 -102.546875 L 86.859375 -87 L 55.203125 -87 L 55.203125 0 L 36.890625 0 L 36.890625 -87 Z M 5.15625 -87 "/></g></g></g><g fill="#ffffff" fill-opacity="1"><g transform="translate(685.783014, 137.113454)"><g><path d="M 9.90625 0 L 9.90625 -102.546875 L 77.5625 -102.546875 L 77.5625 -87 L 28.28125 -87 L 28.28125 -59.53125 L 73.921875 -59.53125 L 73.921875 -44.1875 L 28.28125 -44.1875 L 28.28125 -15.546875 L 77.765625 -15.546875 L 77.765625 0 Z M 9.90625 0 "/></g></g></g><g fill="#ffffff" fill-opacity="1"><g transform="translate(766.692459, 137.113454)"><g><path d="M 44.59375 0 L 18.65625 0 L 18.65625 -15.828125 L 43.640625 -15.828125 C 50.890625 -15.828125 56.921875 -17.15625 61.734375 -19.8125 C 66.554688 -22.476562 70.171875 -26.445312 72.578125 -31.71875 C 74.984375 -37 76.1875 -43.5625 76.1875 -51.40625 C 76.1875 -59.164062 74.984375 -65.660156 72.578125 -70.890625 C 70.171875 -76.117188 66.601562 -80.0625 61.875 -82.71875 C 57.144531 -85.382812 51.25 -86.71875 44.1875 -86.71875 L 18.171875 -86.71875 L 18.171875 -102.546875 L 45.28125 -102.546875 C 55.46875 -102.546875 64.21875 -100.492188 71.53125 -96.390625 C 78.851562 -92.285156 84.488281 -86.410156 88.4375 -78.765625 C 92.382812 -71.128906 94.359375 -62.007812 94.359375 -51.40625 C 94.359375 -40.71875 92.382812 -31.539062 88.4375 -23.875 C 84.488281 -16.21875 78.796875 -10.320312 71.359375 -6.1875 C 63.929688 -2.0625 55.007812 0 44.59375 0 Z M 28.28125 -102.546875 L 28.28125 0 L 9.90625 0 L 9.90625 -102.546875 Z M 28.28125 -102.546875 "/></g></g></g></g></g><g clip-path="url(#008eee8d2a)"><path fill="#d29803" d="M 192.804688 270.546875 L 160.640625 215.304688 L 110.058594 270.203125 L 0.914062 270.179688 L 224.496094 27.464844 L 189.027344 27.464844 L 122.589844 99.582031 L 80.351562 27.109375 L 50.179688 27.109375 L 104.242188 119.941406 L 85.015625 140.820312 L 3.019531 0.00390625 L 95.941406 0.00390625 L 127.527344 54.203125 L 177.128906 0.367188 L 286.324219 0.367188 L 62.730469 243.09375 L 98.160156 243.101562 L 165.59375 169.914062 L 208.421875 243.472656 L 238.632812 243.511719 L 183.9375 149.582031 L 203.167969 128.703125 L 285.824219 270.679688 Z M 192.804688 270.546875 " fill-opacity="1" fill-rule="nonzero"/></g></svg>